# xmcd CD database file
#
# Track frame offsets:
#	150
#	12239
#	29392
#	41306
#	52046
#	62600
#	73146
#	85559
#	103547
#	114609
#
# Disc length: 1695 seconds
#
# Revision: 0
# Processed by: cddbd v1.5.2PL0 Copyright (c) Steve Scherf et al.
# Submitted via: CDex 1.51
#
DISCID=7b069d0a
DTITLE=Various Artist - The Best Of Country
DYEAR=2006
DGENRE=Country
TTITLE0=Tammy Wynette - Stand By Your Man
TTITLE1=Ray Price - For The Good Times
TTITLE2=Sandy Posey - Bring Him Safely Home To Me
TTITLE3=Tanya Tucker - Would You Lay With Me (In A Field Of Stone)
TTITLE4=The Statler Brothers - Flowers On The Wall
TTITLE5=Hawkshaw Hawkins - I Can't Seem To Say Goodbye
TTITLE6=Fess Parker - Ballad Of Davey Crocket
TTITLE7=Lonestar - Amazed
TTITLE8=Roy Acuff - Wreck On The Highway
TTITLE9=Johnny Horton - North To Alaska
EXTD=YEAR: 2006
EXTT0=
EXTT1=
EXTT2=
EXTT3=
EXTT4=
EXTT5=
EXTT6=
EXTT7=
EXTT8=
EXTT9=
PLAYORDER=
